HIERARCHY
ROOT Hips
{
	OFFSET 0.000000 0.000000 0.000000
	CHANNELS 6 Xposition Yposition Zposition Zrotation Yrotation Xrotation 
	JOINT LHipJoint
	{
		OFFSET 0.000000 0.000000 0.000000
		CHANNELS 3 Zrotation Yrotation Xrotation
		JOINT LeftUpLeg
		{
			OFFSET 1.363060 -1.794630 0.839290
			CHANNELS 3 Zrotation Yrotation Xrotation
			JOINT LeftLeg
			{
				OFFSET 2.448110 -6.726130 0.000000
				CHANNELS 3 Zrotation Yrotation Xrotation
				JOINT LeftFoot
				{
					OFFSET 2.562200 -7.039590 0.000000
					CHANNELS 3 Zrotation Yrotation Xrotation
					JOINT LeftToeBase
					{
						OFFSET 0.157640 -0.433110 2.322550
						CHANNELS 3 Zrotation Yrotation Xrotation
						End Site
						{
							OFFSET 0.000000 0.000000 0.000000
						}
					}
				}
			}
		}
	}
	JOINT RHipJoint
	{
		OFFSET 0.000000 0.000000 0.000000
		CHANNELS 3 Zrotation Yrotation Xrotation
		JOINT RightUpLeg
		{
			OFFSET -1.305520 -1.794630 0.839290
			CHANNELS 3 Zrotation Yrotation Xrotation
			JOINT RightLeg
			{
				OFFSET -2.542530 -6.985550 0.000000
				CHANNELS 3 Zrotation Yrotation Xrotation
				JOINT RightFoot
				{
					OFFSET -2.568260 -7.056230 0.000000
					CHANNELS 3 Zrotation Yrotation Xrotation
					JOINT RightToeBase
					{
						OFFSET -0.164730 -0.452590 2.363150
						CHANNELS 3 Zrotation Yrotation Xrotation
						End Site
						{
							OFFSET 0.000000 0.000000 0.000000
						}
					}
				}
			}
		}
	}
	JOINT LowerBack
	{
		OFFSET 0.000000 0.000000 0.000000
		CHANNELS 3 Zrotation Yrotation Xrotation
		JOINT Spine
		{
			OFFSET 0.028270 2.035590 -0.193380
			CHANNELS 3 Zrotation Yrotation Xrotation
			JOINT Spine1
			{
				OFFSET 0.056720 2.048850 -0.042750
				CHANNELS 3 Zrotation Yrotation Xrotation
				JOINT Neck
				{
					OFFSET 0.000000 0.000000 0.000000
					CHANNELS 3 Zrotation Yrotation Xrotation
					JOINT Neck1
					{
						OFFSET -0.054170 1.746240 0.172020
						CHANNELS 3 Zrotation Yrotation Xrotation
						JOINT Head
						{
							OFFSET 0.104070 1.761360 -0.123970
							CHANNELS 3 Zrotation Yrotation Xrotation
							End Site
							{
								OFFSET 0.000000 0.000000 0.000000
							}
						}
					}
				}
				JOINT LeftShoulder
				{
					OFFSET 0.000000 0.000000 0.000000
					CHANNELS 3 Zrotation Yrotation Xrotation
					JOINT LeftArm
					{
						OFFSET 3.362410 1.200890 -0.311210
						CHANNELS 3 Zrotation Yrotation Xrotation
						JOINT LeftForeArm
						{
							OFFSET 4.983000 -0.000000 -0.000000
							CHANNELS 3 Zrotation Yrotation Xrotation
							JOINT LeftHand
							{
								OFFSET 3.483560 -0.000000 -0.000000
								CHANNELS 3 Zrotation Yrotation Xrotation
								JOINT LeftFingerBase
								{
									OFFSET 0.000000 0.000000 0.000000
									CHANNELS 3 Zrotation Yrotation Xrotation
									JOINT LeftHandIndex1
									{
										OFFSET 0.715260 -0.000000 -0.000000
										CHANNELS 3 Zrotation Yrotation Xrotation
										End Site
										{
											OFFSET 0.000000 0.000000 0.000000
										}
									}
								}
								JOINT LThumb
								{
									OFFSET 0.000000 0.000000 0.000000
									CHANNELS 3 Zrotation Yrotation Xrotation
									End Site
									{
										OFFSET 0.000000 0.000000 0.000000
									}
								}
							}
						}
					}
				}
				JOINT RightShoulder
				{
					OFFSET 0.000000 0.000000 0.000000
					CHANNELS 3 Zrotation Yrotation Xrotation
					JOINT RightArm
					{
						OFFSET -3.136600 1.374050 -0.404650
						CHANNELS 3 Zrotation Yrotation Xrotation
						JOINT RightForeArm
						{
							OFFSET -5.241900 -0.000000 -0.000000
							CHANNELS 3 Zrotation Yrotation Xrotation
							JOINT RightHand
							{
								OFFSET -3.444170 -0.000000 -0.000000
								CHANNELS 3 Zrotation Yrotation Xrotation
								JOINT RightFingerBase
								{
									OFFSET 0.000000 0.000000 0.000000
									CHANNELS 3 Zrotation Yrotation Xrotation
									JOINT RightHandIndex1
									{
										OFFSET -0.622530 -0.000000 -0.000000
										CHANNELS 3 Zrotation Yrotation Xrotation
										End Site
										{
											OFFSET 0.000000 0.000000 0.000000
										}
									}
								}
								JOINT RThumb
								{
									OFFSET 0.000000 0.000000 0.000000
									CHANNELS 3 Zrotation Yrotation Xrotation
									End Site
									{
										OFFSET 0.000000 0.000000 0.000000
									}
								}
							}
						}
					}
				}
			}
		}
	}
}
MOTION
Frames: 8
Frame Time: 0.008333
8.854466 17.413468 -1.827591 -157.520319 71.898511 -153.749541 -0.428119 -2.426948 -2.326140 -16.069781 -3.253568 -31.219466 1.708741 13.987965 36.811932 0.674935 0.389239 9.319928 0.063000 1.620000 4.456700 -4.690970 -1.206573 -0.252664 20.369528 -27.010682 7.886599 -20.702993 -18.417437 91.639175 2.461662 -13.214796 3.153143 -0.109500 -2.134000 5.876000 4.087701 4.067616 15.300575 0.168119 6.439210 -2.390178 1.457715 3.618149 1.195378 -10.716424 -14.484546 -0.947643 11.464876 -23.625858 0.134596 12.899500 -8.124200 -0.800900 0.491927 0.051223 2.346446 -90.373417 13.605436 42.790495 112.593103 -57.478661 -78.722291 -1.512055 -0.089734 -5.896210 19.231219 27.174355 9.702700 -7.125000 0.000000 0.000000 -10.541600 58.082900 -3.399300 -2.446424 0.692520 1.616060 77.621285 1.079174 34.507690 -10.717745 25.640451 -3.946237 0.298144 -1.505944 13.054455 -21.977505 23.709649 -10.020800 7.125000 0.000000 0.000000 4.224600 -3.142100 3.997700 
9.493191 17.269972 -1.837534 -161.398441 71.668725 -157.865860 -0.270297 -2.140392 -2.135377 -16.642441 -5.900397 -29.900539 2.619197 14.978735 40.153751 0.547107 0.249239 6.259413 0.034400 -1.198100 -3.293900 -4.776112 -1.197261 -0.509112 18.106826 -27.167163 4.440968 -22.866038 -18.225478 98.431054 2.067513 -11.557321 1.770931 -0.120500 -2.237800 6.163200 2.892821 3.606396 16.091473 0.156463 5.700300 -2.385753 1.608222 3.253505 0.904890 -10.890309 -13.978358 -0.783759 11.742163 -22.978748 0.209585 13.294700 -7.834300 -0.828100 0.491508 -0.083670 2.387063 -91.438204 7.989642 43.441494 109.016854 -57.838729 -75.864248 -1.510639 0.076181 -4.813317 22.582848 27.369234 11.406400 -7.125000 0.000000 0.000000 -6.884700 58.837100 -2.335600 -2.625800 0.750470 1.628269 78.536476 0.767934 32.262042 -10.158675 24.944642 -3.759276 0.294745 -1.586716 15.359193 -22.957730 23.723430 -10.556100 7.125000 0.000000 0.000000 3.589900 -2.879400 3.411900 
10.109883 17.112466 -1.822732 -167.776033 71.945781 -164.005596 -0.169517 -1.810204 -1.914329 -18.352654 -8.281347 -28.569058 3.323299 15.707609 42.711119 0.440420 0.332969 2.334325 0.102600 -2.065800 -5.687700 -4.789933 -1.197405 -0.762070 14.571831 -27.458238 1.282960 -24.730899 -17.819122 104.270725 1.420859 -8.850237 2.527873 -0.067300 -1.674300 4.606400 0.349954 3.382943 16.454354 0.102484 5.045516 -2.378201 2.230595 2.912526 0.784377 -11.323165 -13.765942 -0.732728 12.113399 -22.912918 0.126571 13.666800 -7.753300 -0.766700 0.479451 -0.184814 2.404060 -92.310055 1.755045 43.480482 105.158974 -58.176358 -72.834579 -1.519561 0.108440 -2.664229 22.156885 28.567714 11.645600 -7.125000 0.000000 0.000000 -7.946100 59.987500 -2.917200 -2.787907 0.764318 1.643997 79.372171 0.574526 30.213109 -9.629818 24.200979 -3.564185 0.306564 -1.661934 17.190860 -23.797373 23.799768 -11.053900 7.125000 0.000000 0.000000 3.045700 -2.580200 2.909700 
10.772787 17.067270 -1.806010 -175.393905 72.499810 -171.482783 -0.113420 -1.420303 -1.591664 -20.669227 -7.837238 -26.988675 3.686503 15.990176 44.074353 0.654790 -0.469951 -0.333796 0.200400 -2.882800 -7.952700 -4.713777 -1.160452 -1.046894 10.882295 -26.450721 -3.057874 -26.352992 -17.369012 109.442345 0.830970 -6.058071 2.676846 -0.036800 -1.238700 3.406000 -2.792455 3.385056 16.845804 0.021292 4.608550 -2.351662 3.106428 2.670375 0.799379 -11.870359 -13.494746 -0.902120 12.371969 -22.736782 0.230718 13.924800 -7.668900 -0.540000 0.411842 -0.264291 2.388250 -92.639494 -3.840936 43.735356 99.589127 -58.681890 -68.200073 -1.511029 0.201435 -1.349160 23.112706 28.338636 12.041400 -7.125000 0.000000 0.000000 -6.716200 59.902600 -2.449400 -2.894488 0.722658 1.640966 80.011106 0.401957 28.300726 -9.093687 23.403435 -3.355897 0.296745 -1.717424 18.729091 -23.979131 23.953160 -11.241000 7.125000 0.000000 0.000000 2.929600 -2.343800 2.811000 
11.440437 17.065463 -1.797875 178.920039 72.646576 -177.143617 -0.112621 -1.083994 -1.263275 -22.238183 -7.108647 -24.858277 3.809609 15.985828 44.508719 0.900725 -1.219772 -2.463225 0.242700 -3.170000 -8.752400 -4.656807 -1.111082 -1.290553 8.437676 -25.381802 -7.313454 -27.568763 -17.031821 113.365140 0.305638 -3.251284 2.678014 -0.068200 -1.684600 4.634800 -5.034176 3.278723 17.223868 -0.024606 4.154966 -2.329922 3.702651 2.409769 0.842569 -12.033161 -13.168793 -1.141619 12.285817 -22.186056 0.480623 13.835300 -7.486600 -0.473500 0.366246 -0.293122 2.366176 -92.550940 -9.231013 43.816524 94.239965 -58.936260 -63.904400 -1.500059 0.210480 -0.274096 23.439319 28.906567 12.439700 -7.125000 0.000000 0.000000 -6.641600 60.576100 -2.528600 -2.915952 0.692209 1.630814 80.560807 0.268839 26.391165 -8.509335 22.556602 -3.134411 0.309861 -1.794890 19.972494 -24.459045 24.265106 -11.662800 7.125000 0.000000 0.000000 2.643300 -1.859700 2.558900 
12.106392 17.072807 -1.802620 175.783627 73.052942 179.453987 -0.187821 -0.835090 -0.923398 -22.890136 -5.329283 -22.582230 3.812521 15.804596 44.424822 1.308592 -2.520366 -3.903893 0.303300 -3.540700 -9.787900 -4.673478 -0.998025 -1.482936 7.905726 -23.769634 -11.277082 -28.348178 -16.911347 115.908101 0.020954 -1.489041 2.624331 -0.000400 -0.127000 0.348900 -6.266000 3.213246 17.741492 -0.052185 3.883159 -2.309447 3.905571 2.237015 0.791256 -11.937046 -12.883667 -1.301777 11.999614 -21.515753 0.718932 13.563500 -7.271800 -0.544100 0.316235 -0.319354 2.350752 -91.921131 -14.091881 43.559338 88.710174 -58.949677 -59.564869 -1.448537 0.183153 0.102009 23.900612 28.836697 12.656100 -7.125000 0.000000 0.000000 -6.156000 60.651200 -2.353900 -2.882978 0.718132 1.631273 81.092699 0.199764 24.272216 -7.875478 21.660066 -2.908487 0.282502 -1.849443 21.547171 -24.447197 24.344446 -11.720700 7.125000 0.000000 0.000000 2.642500 -1.739300 2.563800 
12.754043 17.047046 -1.800587 173.312730 73.476400 176.920139 -0.257869 -0.665658 -0.608956 -23.159550 -3.335368 -20.693051 3.819808 15.610544 44.279252 1.761463 -4.051816 -4.837417 0.328300 -3.682400 -10.184800 -4.749282 -0.757245 -1.638346 8.538930 -21.174942 -16.244467 -29.020128 -16.928497 118.144925 -0.201974 0.136990 3.022340 -0.030100 -1.119700 3.078300 -7.268896 3.034581 18.055538 -0.051439 3.483742 -2.328789 4.192074 1.984632 0.657240 -12.004210 -12.485691 -1.595263 11.649739 -20.653591 1.097300 13.295900 -7.001200 -0.452600 0.221261 -0.413537 2.304589 -90.793860 -18.291280 42.703703 83.436579 -58.650774 -55.529906 -1.387912 0.152214 -0.130482 25.032660 28.250014 13.020100 -7.125000 0.000000 0.000000 -4.651300 60.336200 -1.742000 -2.849058 0.772217 1.593097 81.397471 0.256112 22.379764 -7.340102 20.849839 -2.722263 0.202030 -1.864755 23.306564 -23.700286 24.213407 -11.285200 7.125000 0.000000 0.000000 3.088400 -2.015600 2.982300 
13.410168 17.023996 -1.805106 171.217164 73.833507 175.075474 -0.336547 -0.545892 -0.323576 -23.180042 -1.464085 -19.014422 3.809883 15.395052 44.034054 2.082361 -5.164685 -5.349593 0.373900 -3.927400 -10.872600 -4.864824 -0.422221 -1.770498 9.987743 -18.202509 -21.324510 -29.376738 -17.150637 119.301765 -0.209461 0.544669 3.080765 0.000000 0.004500 -0.012500 -8.161468 2.632835 17.823706 -0.012654 2.848757 -2.370151 4.592061 1.578541 0.655614 -12.019727 -11.862770 -2.003125 11.017949 -19.281105 1.643045 12.820700 -6.544400 -0.478200 0.128369 -0.471648 2.255389 -89.021834 -21.868031 40.948734 79.384460 -58.132894 -52.659314 -1.341052 0.021756 -1.127984 24.526475 28.156490 12.733700 -7.125000 0.000000 0.000000 -5.312200 60.246200 -1.978900 -2.769620 0.798790 1.526141 81.424033 0.253906 21.287741 -7.112630 20.448031 -2.635358 0.144235 -1.832386 24.319886 -22.737017 23.828444 -10.628000 7.125000 0.000000 0.000000 3.642400 -2.637600 3.478100 
